<svg xmlns="http://www.w3.org/2000/svg" viewBox="0 0 348.728 348.728" fill="#d72c93"><path d="M201.977 297.183c-2.786 0-9.259-1.261-9.259-13v-53.882H14.388c-.493.078-1.156.15-1.937.15-3.173 0-6.101-1.201-8.245-3.404C1.415 224.195 0 219.835 0 214.094v-82.82c0-11.458 8.122-14.48 12.421-14.48h176.538V67.41c0-13.805 6.569-15.865 10.496-15.865 6.281 0 12.538 5.972 13.727 7.176 4.294 3.167 117.851 88.778 130.328 101.244 4.528 4.537 5.333 9.101 5.206 12.124-.3 7.274-5.908 12.223-6.539 12.775l-126.305 104.52c-1.386 1.5-7.799 7.799-13.895 7.799z"/></svg>