<svg xmlns="http://www.w3.org/2000/svg" viewBox="0 0 335.015 335.015" fill="#ffffff"><path d="M313.057 108.752l-79.48-18.4-41.84-69.56.12.04a27.995 27.995 0 00-9.996-10.129c-13.303-7.885-30.479-3.493-38.364 9.81l-42.16 69.88-79.48 18.4a28.013 28.013 0 00-12.259 6.214c-11.655 10.163-12.865 27.851-2.701 39.506l53.6 61.72-7.08 81.44a28.014 28.014 0 002.12 13.419c6.047 14.233 22.487 20.868 36.72 14.821l75.24-32 72.92 30.92a28 28 0 0016.046 3.269c15.393-1.479 26.673-15.156 25.194-30.549l-7.08-81.44 52.64-60.64a28.003 28.003 0 007.131-13.333c3.34-15.099-6.192-30.047-21.291-33.388z"/></svg>